<svg xmlns="http://www.w3.org/2000/svg" width="23.847" height="23.847" viewBox="0 0 23.847 23.847"><defs><style>.a{fill:#fff;}</style></defs><path class="a" d="M21.053,0H2.795A2.8,2.8,0,0,0,0,2.795V21.053a2.8,2.8,0,0,0,2.795,2.795H21.053a2.8,2.8,0,0,0,2.795-2.795V2.795A2.8,2.8,0,0,0,21.053,0Zm.932,21.053a.933.933,0,0,1-.932.932h-5.31V14.392h2.878L19.1,11.5H15.743v-2a1.374,1.374,0,0,1,1.4-1.4h1.91V5.217H17.14A4.284,4.284,0,0,0,12.856,9.51V11.5h-2.8v2.888h2.8v7.592H2.795a.933.933,0,0,1-.932-.932V2.795a.933.933,0,0,1,.932-.932H21.053a.933.933,0,0,1,.932.932Z"/></svg>