<svg xmlns="http://www.w3.org/2000/svg" width="22.713" height="22.713" viewBox="0 0 22.713 22.713"><defs><style>.a{fill:#374f5d;}</style></defs><path class="a" d="M19.385,3.328a11.354,11.354,0,1,0,0,16.057A11.348,11.348,0,0,0,19.385,3.328ZM18.91,17.766a11.38,11.38,0,0,0-1.7-1.256,18.362,18.362,0,0,0,.685-4.43h3.338a9.817,9.817,0,0,1-2.327,5.686ZM1.476,12.079H4.814A18.362,18.362,0,0,0,5.5,16.51a11.381,11.381,0,0,0-1.7,1.256A9.817,9.817,0,0,1,1.476,12.079ZM3.8,4.946A11.381,11.381,0,0,0,5.5,6.2a18.362,18.362,0,0,0-.685,4.43H1.476A9.817,9.817,0,0,1,3.8,4.946Zm6.83,1.405A9.83,9.83,0,0,1,7.26,5.5C7.874,3.917,9,2.023,10.633,1.553Zm0,1.45v2.831H6.261A17.047,17.047,0,0,1,6.81,6.881,11.278,11.278,0,0,0,10.633,7.8Zm0,4.278v2.831a11.278,11.278,0,0,0-3.823.92,17.047,17.047,0,0,1-.549-3.751Zm0,4.281v4.8C9,20.689,7.874,18.795,7.26,17.215A9.83,9.83,0,0,1,10.633,16.36Zm1.447,0a9.83,9.83,0,0,1,3.373.854c-.613,1.58-1.744,3.474-3.373,3.944Zm0-1.45V12.079h4.372a17.047,17.047,0,0,1-.549,3.751,11.278,11.278,0,0,0-3.823-.92Zm0-4.278V7.8a11.278,11.278,0,0,0,3.823-.92,17.047,17.047,0,0,1,.549,3.751Zm0-4.281v-4.8c1.628.47,2.759,2.364,3.373,3.944A9.831,9.831,0,0,1,12.08,6.351Zm3.25-4.076a9.863,9.863,0,0,1,2.565,1.638,9.944,9.944,0,0,1-1.164.883,10.893,10.893,0,0,0-1.4-2.521ZM5.982,4.8a9.948,9.948,0,0,1-1.164-.883A9.863,9.863,0,0,1,7.383,2.276,10.9,10.9,0,0,0,5.982,4.8Zm0,13.118a10.894,10.894,0,0,0,1.4,2.521A9.863,9.863,0,0,1,4.818,18.8,9.945,9.945,0,0,1,5.982,17.915Zm10.748,0a9.949,9.949,0,0,1,1.164.883,9.863,9.863,0,0,1-2.565,1.638A10.893,10.893,0,0,0,16.731,17.915ZM17.9,10.632a18.362,18.362,0,0,0-.685-4.43,11.383,11.383,0,0,0,1.7-1.256,9.817,9.817,0,0,1,2.327,5.686Z" transform="translate(0 0.001)"/></svg>