<svg xmlns="http://www.w3.org/2000/svg" width="23.847" height="23.847" viewBox="0 0 23.847 23.847"><defs><style>.a{fill:#fff;}</style></defs><path class="a" d="M7.453,19.7H4.193V9.176h3.26Zm.325-13.88A1.909,1.909,0,1,0,5.87,7.732a1.91,1.91,0,0,0,1.909-1.91Zm11.877,8.089c0-2.826-.6-4.921-3.9-4.921a3.383,3.383,0,0,0-3.086,1.618h0V9.176H9.5V19.7h3.167V14.475c0-1.369.348-2.695,2.045-2.695,1.673,0,1.728,1.565,1.728,2.782V19.7h3.214Zm4.192,7.142V2.795A2.8,2.8,0,0,0,21.053,0H2.795A2.8,2.8,0,0,0,0,2.795V21.053a2.8,2.8,0,0,0,2.795,2.795H21.053A2.8,2.8,0,0,0,23.848,21.053ZM21.053,1.863a.933.933,0,0,1,.932.932V21.053a.933.933,0,0,1-.932.932H2.795a.933.933,0,0,1-.932-.932V2.795a.933.933,0,0,1,.932-.932Zm0,0" transform="translate(0)"/></svg>