<svg xmlns="http://www.w3.org/2000/svg" width="30.046" height="20.585" viewBox="0 0 30.046 20.585"><defs><style>.a{fill:#5bb7de;}</style></defs><g transform="translate(0 -80.609)"><g transform="translate(0 80.609)"><path class="a" d="M27.405,80.609H2.641A2.644,2.644,0,0,0,0,83.25v15.3a2.644,2.644,0,0,0,2.641,2.641H27.405a2.644,2.644,0,0,0,2.641-2.641V83.25A2.644,2.644,0,0,0,27.405,80.609Zm-.345,1.761-.352.293L16.071,91.521a1.637,1.637,0,0,1-2.1,0L3.338,82.663l-.352-.293Zm-25.3,1.271,8.667,7.217L1.761,96.626ZM27.405,99.434H2.641a.882.882,0,0,1-.863-.7l10.061-6.7,1.01.841a3.4,3.4,0,0,0,4.349,0l1.01-.841,10.061,6.7A.882.882,0,0,1,27.405,99.434Zm.88-2.808-8.667-5.768,8.667-7.217Z" transform="translate(0 -80.609)"/></g></g></svg>