<svg xmlns="http://www.w3.org/2000/svg" width="16.863" height="29.029" viewBox="0 0 16.863 29.029"><defs><style>.a{fill:#5bb7de;}</style></defs><g transform="translate(-7.334)"><path class="a" d="M22.236,0H9.295A1.966,1.966,0,0,0,7.334,1.961V27.067a1.967,1.967,0,0,0,1.961,1.962H22.236A1.966,1.966,0,0,0,24.2,27.068V1.961A1.966,1.966,0,0,0,22.236,0ZM13.7,1.413h4.14a.238.238,0,0,1,0,.475H13.7a.238.238,0,0,1,0-.475Zm2.07,26.635a.981.981,0,1,1,.98-.981A.98.98,0,0,1,15.766,28.048ZM22.833,25.4H8.7V3.109H22.833Z"/></g></svg>